<svg id="visual" viewBox="0 0 900 600" width="900" height="600" xmlns="http://www.w3.org/2000/svg" xmlns:xlink="http://www.w3.org/1999/xlink" version="1.1"><path d="M0 448L18.8 445.5C37.7 443 75.3 438 112.8 438C150.3 438 187.7 443 225.2 440.7C262.7 438.3 300.3 428.7 337.8 426.2C375.3 423.7 412.7 428.3 450.2 430.7C487.7 433 525.3 433 562.8 420.8C600.3 408.7 637.7 384.3 675.2 378.2C712.7 372 750.3 384 787.8 398.5C825.3 413 862.7 430 881.3 438.5L900 447L900 601L881.3 601C862.7 601 825.3 601 787.8 601C750.3 601 712.7 601 675.2 601C637.7 601 600.3 601 562.8 601C525.3 601 487.7 601 450.2 601C412.7 601 375.3 601 337.8 601C300.3 601 262.7 601 225.2 601C187.7 601 150.3 601 112.8 601C75.3 601 37.7 601 18.8 601L0 601Z" fill="#3375cf"></path><path d="M0 439L18.8 437.2C37.7 435.3 75.3 431.7 112.8 435.3C150.3 439 187.7 450 225.2 451.7C262.7 453.3 300.3 445.7 337.8 437.5C375.3 429.3 412.7 420.7 450.2 426.7C487.7 432.7 525.3 453.3 562.8 451.3C600.3 449.3 637.7 424.7 675.2 420C712.7 415.3 750.3 430.7 787.8 431.5C825.3 432.3 862.7 418.7 881.3 411.8L900 405L900 601L881.3 601C862.7 601 825.3 601 787.8 601C750.3 601 712.7 601 675.2 601C637.7 601 600.3 601 562.8 601C525.3 601 487.7 601 450.2 601C412.7 601 375.3 601 337.8 601C300.3 601 262.7 601 225.2 601C187.7 601 150.3 601 112.8 601C75.3 601 37.7 601 18.8 601L0 601Z" fill="#0091ce"></path><path d="M0 463L18.8 462.2C37.7 461.3 75.3 459.7 112.8 466.3C150.3 473 187.7 488 225.2 485.8C262.7 483.7 300.3 464.3 337.8 465.5C375.3 466.7 412.7 488.3 450.2 495.5C487.7 502.7 525.3 495.3 562.8 487.7C600.3 480 637.7 472 675.2 464.7C712.7 457.3 750.3 450.7 787.8 456.3C825.3 462 862.7 480 881.3 489L900 498L900 601L881.3 601C862.7 601 825.3 601 787.8 601C750.3 601 712.7 601 675.2 601C637.7 601 600.3 601 562.8 601C525.3 601 487.7 601 450.2 601C412.7 601 375.3 601 337.8 601C300.3 601 262.7 601 225.2 601C187.7 601 150.3 601 112.8 601C75.3 601 37.7 601 18.8 601L0 601Z" fill="#00a5be"></path><path d="M0 510L18.8 514.8C37.7 519.7 75.3 529.3 112.8 525.3C150.3 521.3 187.7 503.7 225.2 500.2C262.7 496.7 300.3 507.3 337.8 506.7C375.3 506 412.7 494 450.2 492.3C487.7 490.7 525.3 499.3 562.8 507.2C600.3 515 637.7 522 675.2 526.5C712.7 531 750.3 533 787.8 533.7C825.3 534.3 862.7 533.7 881.3 533.3L900 533L900 601L881.3 601C862.7 601 825.3 601 787.8 601C750.3 601 712.7 601 675.2 601C637.7 601 600.3 601 562.8 601C525.3 601 487.7 601 450.2 601C412.7 601 375.3 601 337.8 601C300.3 601 262.7 601 225.2 601C187.7 601 150.3 601 112.8 601C75.3 601 37.7 601 18.8 601L0 601Z" fill="#00b49e"></path><path d="M0 529L18.8 535.8C37.7 542.7 75.3 556.3 112.8 558.2C150.3 560 187.7 550 225.2 545.2C262.7 540.3 300.3 540.7 337.8 538.8C375.3 537 412.7 533 450.2 538.3C487.7 543.7 525.3 558.3 562.8 560C600.3 561.7 637.7 550.3 675.2 542.7C712.7 535 750.3 531 787.8 535.3C825.3 539.7 862.7 552.3 881.3 558.7L900 565L900 601L881.3 601C862.7 601 825.3 601 787.8 601C750.3 601 712.7 601 675.2 601C637.7 601 600.3 601 562.8 601C525.3 601 487.7 601 450.2 601C412.7 601 375.3 601 337.8 601C300.3 601 262.7 601 225.2 601C187.7 601 150.3 601 112.8 601C75.3 601 37.7 601 18.8 601L0 601Z" fill="#68bb60"></path></svg>