<!DOCTYPE svg PUBLIC "-//W3C//DTD SVG 1.1//EN" "http://www.w3.org/Graphics/SVG/1.1/DTD/svg11.dtd">
<!-- Uploaded to: SVG Repo, www.svgrepo.com, Transformed by: SVG Repo Mixer Tools -->
<svg width="800px" height="800px" viewBox="0 0 400 400" fill="none" xmlns="http://www.w3.org/2000/svg">
<g id="SVGRepo_bgCarrier" stroke-width="0"/>
<g id="SVGRepo_tracerCarrier" stroke-linecap="round" stroke-linejoin="round"/>
<g id="SVGRepo_iconCarrier"> <path d="M236.422 156.236C234.076 172.066 232.393 188.506 234.788 204.466C238.823 231.369 257.513 255.894 261.371 282.892C268.461 332.527 236.422 405.585 177.566 371.227L176.227 370.205" stroke="#FFFFFF" stroke-opacity="0.9" stroke-width="16" stroke-linecap="round" stroke-linejoin="round"/> <path d="M157.023 347.105C140.692 324.411 152.915 264.28 191.467 278.855" stroke="#FFFFFF" stroke-opacity="0.9" stroke-width="16" stroke-linecap="round" stroke-linejoin="round"/> <path d="M191.162 279.344C177.543 290.844 168.988 306.192 172.748 318.78" stroke="#FFFFFF" stroke-opacity="0.9" stroke-width="16" stroke-linecap="round" stroke-linejoin="round"/> <path d="M205.994 341.644C216.787 341.099 228.511 336.405 232.334 325.449C247.81 279.023 193.645 235.505 198.819 188.935C201.321 166.418 213.21 141.853 236.716 154.466" stroke="#FFFFFF" stroke-opacity="0.9" stroke-width="16" stroke-linecap="round" stroke-linejoin="round"/> <path d="M222 14C220.278 66.5596 219 119.42 219 172" stroke="#FFFFFF" stroke-opacity="0.5" stroke-width="16" stroke-linecap="round" stroke-linejoin="round"/> <path d="M306.09 298.945C301.526 284.644 280.455 275.827 265.957 279.452" stroke="#FFFFFF" stroke-opacity="0.5" stroke-width="16" stroke-linecap="round" stroke-linejoin="round"/> <path d="M232.131 314.998C199.911 327.887 191.271 367.301 157.132 384.371C142.701 391.587 78.9436 382.382 95.8213 365.505C102.291 359.034 125.597 364.869 153.585 350.545C181.573 336.221 183.971 305.252 225.825 288.052" stroke="#FFFFFF" stroke-opacity="0.5" stroke-width="16" stroke-linecap="round" stroke-linejoin="round"/> <path d="M264.238 310.45C281.74 314.039 306.665 322.58 306.665 304.105" stroke="#FFFFFF" stroke-opacity="0.5" stroke-width="16" stroke-linecap="round" stroke-linejoin="round"/> </g>
</svg>