<?xml version="1.0" standalone="no"?>
<svg xmlns:xlink="http://www.w3.org/1999/xlink" id="wave" style="transform:rotate(0deg); transition: 0.3s" viewBox="0 0 1440 300" version="1.1" xmlns="http://www.w3.org/2000/svg"><defs><linearGradient id="sw-gradient-0" x1="0" x2="0" y1="1" y2="0"><stop stop-color="rgba(255, 255, 255, 1)" offset="0%"/><stop stop-color="rgba(255, 255, 255, 0.39)" offset="100%"/></linearGradient></defs><path style="transform:translate(0, 0px); opacity:1" fill="url(#sw-gradient-0)" d="M0,120L48,115C96,110,192,100,288,95C384,90,480,90,576,110C672,130,768,170,864,190C960,210,1056,210,1152,205C1248,200,1344,190,1440,200C1536,210,1632,240,1728,210C1824,180,1920,90,2016,65C2112,40,2208,80,2304,90C2400,100,2496,80,2592,105C2688,130,2784,200,2880,235C2976,270,3072,270,3168,270C3264,270,3360,270,3456,245C3552,220,3648,170,3744,125C3840,80,3936,40,4032,25C4128,10,4224,20,4320,55C4416,90,4512,150,4608,155C4704,160,4800,110,4896,80C4992,50,5088,40,5184,65C5280,90,5376,150,5472,145C5568,140,5664,70,5760,40C5856,10,5952,20,6048,20C6144,20,6240,10,6336,40C6432,70,6528,140,6624,170C6720,200,6816,190,6864,185L6912,180L6912,300L6864,300C6816,300,6720,300,6624,300C6528,300,6432,300,6336,300C6240,300,6144,300,6048,300C5952,300,5856,300,5760,300C5664,300,5568,300,5472,300C5376,300,5280,300,5184,300C5088,300,4992,300,4896,300C4800,300,4704,300,4608,300C4512,300,4416,300,4320,300C4224,300,4128,300,4032,300C3936,300,3840,300,3744,300C3648,300,3552,300,3456,300C3360,300,3264,300,3168,300C3072,300,2976,300,2880,300C2784,300,2688,300,2592,300C2496,300,2400,300,2304,300C2208,300,2112,300,2016,300C1920,300,1824,300,1728,300C1632,300,1536,300,1440,300C1344,300,1248,300,1152,300C1056,300,960,300,864,300C768,300,672,300,576,300C480,300,384,300,288,300C192,300,96,300,48,300L0,300Z"/><defs><linearGradient id="sw-gradient-1" x1="0" x2="0" y1="1" y2="0"><stop stop-color="rgba(255, 255, 255, 1)" offset="0%"/><stop stop-color="rgba(255, 255, 255, 0.41)" offset="100%"/></linearGradient></defs><path style="transform:translate(0, 50px); opacity:0.9" fill="url(#sw-gradient-1)" d="M0,30L48,45C96,60,192,90,288,110C384,130,480,140,576,130C672,120,768,90,864,100C960,110,1056,160,1152,165C1248,170,1344,130,1440,110C1536,90,1632,90,1728,75C1824,60,1920,30,2016,35C2112,40,2208,80,2304,95C2400,110,2496,100,2592,95C2688,90,2784,90,2880,115C2976,140,3072,190,3168,205C3264,220,3360,200,3456,200C3552,200,3648,220,3744,190C3840,160,3936,80,4032,85C4128,90,4224,180,4320,220C4416,260,4512,250,4608,245C4704,240,4800,240,4896,235C4992,230,5088,220,5184,190C5280,160,5376,110,5472,75C5568,40,5664,20,5760,25C5856,30,5952,60,6048,80C6144,100,6240,110,6336,115C6432,120,6528,120,6624,105C6720,90,6816,60,6864,45L6912,30L6912,300L6864,300C6816,300,6720,300,6624,300C6528,300,6432,300,6336,300C6240,300,6144,300,6048,300C5952,300,5856,300,5760,300C5664,300,5568,300,5472,300C5376,300,5280,300,5184,300C5088,300,4992,300,4896,300C4800,300,4704,300,4608,300C4512,300,4416,300,4320,300C4224,300,4128,300,4032,300C3936,300,3840,300,3744,300C3648,300,3552,300,3456,300C3360,300,3264,300,3168,300C3072,300,2976,300,2880,300C2784,300,2688,300,2592,300C2496,300,2400,300,2304,300C2208,300,2112,300,2016,300C1920,300,1824,300,1728,300C1632,300,1536,300,1440,300C1344,300,1248,300,1152,300C1056,300,960,300,864,300C768,300,672,300,576,300C480,300,384,300,288,300C192,300,96,300,48,300L0,300Z"/><defs><linearGradient id="sw-gradient-2" x1="0" x2="0" y1="1" y2="0"><stop stop-color="rgba(255, 255, 255, 0.67)" offset="0%"/><stop stop-color="rgba(255, 255, 255, 0.73)" offset="100%"/></linearGradient></defs><path style="transform:translate(0, 100px); opacity:0.8" fill="url(#sw-gradient-2)" d="M0,270L48,235C96,200,192,130,288,125C384,120,480,180,576,210C672,240,768,240,864,210C960,180,1056,120,1152,125C1248,130,1344,200,1440,225C1536,250,1632,230,1728,215C1824,200,1920,190,2016,200C2112,210,2208,240,2304,235C2400,230,2496,190,2592,170C2688,150,2784,150,2880,140C2976,130,3072,110,3168,105C3264,100,3360,110,3456,100C3552,90,3648,60,3744,85C3840,110,3936,190,4032,220C4128,250,4224,230,4320,190C4416,150,4512,90,4608,65C4704,40,4800,50,4896,70C4992,90,5088,120,5184,120C5280,120,5376,90,5472,110C5568,130,5664,200,5760,235C5856,270,5952,270,6048,250C6144,230,6240,190,6336,190C6432,190,6528,230,6624,210C6720,190,6816,110,6864,70L6912,30L6912,300L6864,300C6816,300,6720,300,6624,300C6528,300,6432,300,6336,300C6240,300,6144,300,6048,300C5952,300,5856,300,5760,300C5664,300,5568,300,5472,300C5376,300,5280,300,5184,300C5088,300,4992,300,4896,300C4800,300,4704,300,4608,300C4512,300,4416,300,4320,300C4224,300,4128,300,4032,300C3936,300,3840,300,3744,300C3648,300,3552,300,3456,300C3360,300,3264,300,3168,300C3072,300,2976,300,2880,300C2784,300,2688,300,2592,300C2496,300,2400,300,2304,300C2208,300,2112,300,2016,300C1920,300,1824,300,1728,300C1632,300,1536,300,1440,300C1344,300,1248,300,1152,300C1056,300,960,300,864,300C768,300,672,300,576,300C480,300,384,300,288,300C192,300,96,300,48,300L0,300Z"/><defs><linearGradient id="sw-gradient-3" x1="0" x2="0" y1="1" y2="0"><stop stop-color="rgba(255, 255, 255, 0.53)" offset="0%"/><stop stop-color="rgba(255, 255, 255, 1)" offset="100%"/></linearGradient></defs><path style="transform:translate(0, 150px); opacity:0.7" fill="url(#sw-gradient-3)" d="M0,240L48,215C96,190,192,140,288,100C384,60,480,30,576,40C672,50,768,100,864,145C960,190,1056,230,1152,240C1248,250,1344,230,1440,210C1536,190,1632,170,1728,150C1824,130,1920,110,2016,130C2112,150,2208,210,2304,240C2400,270,2496,270,2592,245C2688,220,2784,170,2880,130C2976,90,3072,60,3168,70C3264,80,3360,130,3456,155C3552,180,3648,180,3744,150C3840,120,3936,60,4032,70C4128,80,4224,160,4320,205C4416,250,4512,260,4608,220C4704,180,4800,90,4896,55C4992,20,5088,40,5184,85C5280,130,5376,200,5472,200C5568,200,5664,130,5760,115C5856,100,5952,140,6048,155C6144,170,6240,160,6336,150C6432,140,6528,130,6624,130C6720,130,6816,140,6864,145L6912,150L6912,300L6864,300C6816,300,6720,300,6624,300C6528,300,6432,300,6336,300C6240,300,6144,300,6048,300C5952,300,5856,300,5760,300C5664,300,5568,300,5472,300C5376,300,5280,300,5184,300C5088,300,4992,300,4896,300C4800,300,4704,300,4608,300C4512,300,4416,300,4320,300C4224,300,4128,300,4032,300C3936,300,3840,300,3744,300C3648,300,3552,300,3456,300C3360,300,3264,300,3168,300C3072,300,2976,300,2880,300C2784,300,2688,300,2592,300C2496,300,2400,300,2304,300C2208,300,2112,300,2016,300C1920,300,1824,300,1728,300C1632,300,1536,300,1440,300C1344,300,1248,300,1152,300C1056,300,960,300,864,300C768,300,672,300,576,300C480,300,384,300,288,300C192,300,96,300,48,300L0,300Z"/></svg>